<?xml version="1.0" encoding="utf-8"?>
<!-- Generator: Adobe Illustrator 18.1.0, SVG Export Plug-In . SVG Version: 6.00 Build 0)  -->
<svg version="1.1" id="Capa_1" xmlns="http://www.w3.org/2000/svg" xmlns:xlink="http://www.w3.org/1999/xlink" x="0px" y="0px"
	 viewBox="0 0 612 792" enable-background="new 0 0 612 792" xml:space="preserve">
<g>
	<g>
		<g>
			<path fill="#F5C229" d="M315.5,263.5c-0.2-14.1,6.4-25.1,12.7-35.8c8.4-14.1,17.1-28.8,11-48.9c-6.1-18.5-17.8-27.5-28.1-35.5
				c-13.9-10.8-23.9-18.5-18.7-48.1l0.5-2.5L278,90l-0.4,2.5c-6.8,38.6,9.7,51.4,24.3,62.7c9.4,7.3,18.3,14.3,22.9,28.1
				c4.1,13.5-2,23.7-9.6,36.6c-7.1,12-15.1,25.5-14.9,43.5c-75.7,0.1-153,3.2-153,272.2C147.2,656.8,244.6,702,306,702
				c61.4,0,158.8-45.2,158.8-166.4C464.8,267,386,263.7,315.5,263.5z M313.6,278.7c62.5,0.1,120.9,2.6,133.5,178.8
				c-42.7,20-87.6,30.6-133.5,31.7v-32.8c9.4-1.8,16.4-10.1,16.4-19.7v-99.1c0-9.7-7.1-17.9-16.4-19.7L313.6,278.7L313.6,278.7z
				 M302.2,332.4h7.6c2.8,0,5,2.3,5,5v99.1c0,2.8-2.3,5-5,5h-7.6c-2.8,0-5-2.2-5-5v-99.1C297.2,334.7,299.5,332.4,302.2,332.4z
				 M298.4,278.7v39c-9.4,1.8-16.4,10.1-16.4,19.7v99.1c0,9.7,7,17.9,16.4,19.7v32.8c-69.8-1.6-120.7-24.9-133.5-31.4
				C177.4,281.3,235.9,278.8,298.4,278.7z M306,686.8c-55.5,0-143.6-41-143.6-151.2c0-21.9,0.5-42.6,1.5-61.6
				c22.2,10.3,74.1,30.3,142.4,30.3c48.6,0,96.3-10.3,141.8-30.7c1,19,1.5,39.8,1.5,61.9C449.6,645.8,361.5,686.8,306,686.8z"/>
		</g>
		<g>
			<polygon fill="#F5C229" points="354.8,309.4 340,327.5 369.7,327.5 			"/>
		</g>
		<g>
			<polygon fill="#F5C229" points="355.4,464.9 370.2,446.7 340.5,446.7 			"/>
		</g>
	</g>
</g>
</svg>
